<svg width="625" height="175" viewBox="0 0 625 175" fill="none" xmlns="http://www.w3.org/2000/svg">
<rect x="82" y="25.1283" width="25" height="143" rx="12.5" transform="rotate(-90 82 25.1283)" fill="#006C45"/>
<rect x="1.90735e-06" y="173.465" width="25" height="142" rx="12.5" transform="rotate(-90 1.90735e-06 173.465)" fill="#006C45"/>
<rect x="77.8511" y="174.983" width="25" height="181.238" rx="12.5" transform="rotate(-155.034 77.8511 174.983)" fill="#006C45"/>
<path d="M165.4 120.465C161.733 120.465 158.467 119.731 155.6 118.265C152.8 116.798 150.6 114.631 149 111.765C147.467 108.831 146.7 105.165 146.7 100.765C146.7 96.8981 147.1 93.1981 147.9 89.6647C148.7 86.1314 149.867 82.8647 151.4 79.8647C152.933 76.8647 154.8 74.2314 157 71.9647C159.2 69.6981 161.7 67.9647 164.5 66.7647C167.3 65.4981 170.367 64.8647 173.7 64.8647C176.033 64.8647 178.3 65.0981 180.5 65.5647C182.7 66.0314 184.7 66.6647 186.5 67.4647L184 74.7647C182.667 74.1647 181.133 73.5981 179.4 73.0647C177.733 72.5314 175.867 72.2647 173.8 72.2647C171.667 72.2647 169.667 72.7647 167.8 73.7647C165.933 74.6981 164.233 76.0647 162.7 77.8647C161.233 79.5981 159.967 81.6647 158.9 84.0647C157.9 86.3981 157.1 88.9647 156.5 91.7647C155.967 94.5647 155.7 97.4981 155.7 100.565C155.7 103.231 156.133 105.498 157 107.365C157.867 109.231 159.1 110.665 160.7 111.665C162.3 112.665 164.233 113.165 166.5 113.165C168.767 113.165 170.9 112.831 172.9 112.165C174.9 111.498 176.867 110.731 178.8 109.865V117.265C177 118.198 174.967 118.965 172.7 119.565C170.5 120.165 168.067 120.465 165.4 120.465ZM208.664 120.265C204.797 120.265 201.464 119.465 198.664 117.865C195.864 116.198 193.697 113.831 192.164 110.765C190.631 107.698 189.864 104.098 189.864 99.9647C189.864 96.6981 190.197 93.3981 190.864 90.0647C191.597 86.7314 192.664 83.5981 194.064 80.6647C195.464 77.6647 197.197 74.9981 199.264 72.6647C201.397 70.3314 203.831 68.4981 206.564 67.1647C209.364 65.8314 212.464 65.1647 215.864 65.1647C219.797 65.1647 223.164 65.9981 225.964 67.6647C228.764 69.3314 230.897 71.6981 232.364 74.7647C233.897 77.7647 234.664 81.3647 234.664 85.5647C234.664 88.8314 234.297 92.1314 233.564 95.4647C232.897 98.7314 231.864 101.865 230.464 104.865C229.064 107.798 227.331 110.431 225.264 112.765C223.197 115.098 220.764 116.931 217.964 118.265C215.231 119.598 212.131 120.265 208.664 120.265ZM209.364 112.965C211.164 112.965 212.864 112.565 214.464 111.765C216.131 110.898 217.631 109.698 218.964 108.165C220.364 106.565 221.564 104.631 222.564 102.365C223.564 100.031 224.331 97.3981 224.864 94.4647C225.464 91.4647 225.764 88.1981 225.764 84.6647C225.764 82.7314 225.431 80.8314 224.764 78.9647C224.097 77.0981 223.031 75.5647 221.564 74.3647C220.164 73.0981 218.231 72.4647 215.764 72.4647C213.697 72.4647 211.764 72.9647 209.964 73.9647C208.231 74.8981 206.664 76.2314 205.264 77.9647C203.864 79.6314 202.664 81.6314 201.664 83.9647C200.731 86.2981 199.997 88.8314 199.464 91.5647C198.997 94.2981 198.764 97.1647 198.764 100.165C198.764 104.231 199.664 107.398 201.464 109.665C203.331 111.865 205.964 112.965 209.364 112.965ZM240.977 119.465L252.477 65.5647H260.177L258.977 75.4647H259.177C260.444 73.7981 261.877 72.1314 263.477 70.4647C265.077 68.7981 266.911 67.3981 268.977 66.2647C271.111 65.1314 273.544 64.5647 276.277 64.5647C279.011 64.5647 281.344 65.0981 283.277 66.1647C285.277 67.2314 286.777 68.7647 287.777 70.7647C288.844 72.7647 289.377 75.1981 289.377 78.0647C289.377 79.5981 289.244 81.1647 288.977 82.7647C288.711 84.3647 288.444 85.7647 288.177 86.9647L281.177 119.465H271.877L278.977 85.7647C279.311 84.2314 279.544 82.9647 279.677 81.9647C279.877 80.8981 279.977 79.8981 279.977 78.9647C279.977 76.8314 279.477 75.2314 278.477 74.1647C277.477 73.0981 275.911 72.5647 273.777 72.5647C271.644 72.5647 269.344 73.3647 266.877 74.9647C264.477 76.4981 262.244 78.9981 260.177 82.4647C258.111 85.9314 256.477 90.5981 255.277 96.4647L250.277 119.465H240.977ZM317.453 120.265C313.586 120.265 310.253 119.465 307.453 117.865C304.653 116.198 302.486 113.831 300.953 110.765C299.42 107.698 298.653 104.098 298.653 99.9647C298.653 96.6981 298.986 93.3981 299.653 90.0647C300.386 86.7314 301.453 83.5981 302.853 80.6647C304.253 77.6647 305.986 74.9981 308.053 72.6647C310.186 70.3314 312.62 68.4981 315.353 67.1647C318.153 65.8314 321.253 65.1647 324.653 65.1647C328.586 65.1647 331.953 65.9981 334.753 67.6647C337.553 69.3314 339.686 71.6981 341.153 74.7647C342.686 77.7647 343.453 81.3647 343.453 85.5647C343.453 88.8314 343.086 92.1314 342.353 95.4647C341.686 98.7314 340.653 101.865 339.253 104.865C337.853 107.798 336.12 110.431 334.053 112.765C331.986 115.098 329.553 116.931 326.753 118.265C324.02 119.598 320.92 120.265 317.453 120.265ZM318.153 112.965C319.953 112.965 321.653 112.565 323.253 111.765C324.92 110.898 326.42 109.698 327.753 108.165C329.153 106.565 330.353 104.631 331.353 102.365C332.353 100.031 333.12 97.3981 333.653 94.4647C334.253 91.4647 334.553 88.1981 334.553 84.6647C334.553 82.7314 334.22 80.8314 333.553 78.9647C332.886 77.0981 331.82 75.5647 330.353 74.3647C328.953 73.0981 327.02 72.4647 324.553 72.4647C322.486 72.4647 320.553 72.9647 318.753 73.9647C317.02 74.8981 315.453 76.2314 314.053 77.9647C312.653 79.6314 311.453 81.6314 310.453 83.9647C309.52 86.2981 308.786 88.8314 308.253 91.5647C307.786 94.2981 307.553 97.1647 307.553 100.165C307.553 104.231 308.453 107.398 310.253 109.665C312.12 111.865 314.753 112.965 318.153 112.965ZM345.166 143.465L361.566 65.8647H368.766L367.466 75.8647H367.866C369.4 73.8647 371 72.0647 372.666 70.4647C374.4 68.7981 376.266 67.4647 378.266 66.4647C380.333 65.4647 382.533 64.9647 384.866 64.9647C387.533 64.9647 389.866 65.6314 391.866 66.9647C393.933 68.2981 395.533 70.2981 396.666 72.9647C397.866 75.6314 398.466 78.9647 398.466 82.9647C398.466 86.8981 398.066 90.6981 397.266 94.3647C396.533 98.0314 395.466 101.465 394.066 104.665C392.666 107.798 390.933 110.565 388.866 112.965C386.8 115.298 384.466 117.131 381.866 118.465C379.266 119.798 376.433 120.465 373.366 120.465C371.1 120.465 369.133 120.031 367.466 119.165C365.8 118.298 364.4 117.165 363.266 115.765C362.2 114.365 361.3 112.865 360.566 111.265H360.066C360 112.331 359.8 113.831 359.466 115.765C359.2 117.631 358.933 119.165 358.666 120.365L353.866 143.465H345.166ZM372.666 113.165C374.666 113.165 376.533 112.598 378.266 111.465C380 110.331 381.533 108.798 382.866 106.865C384.266 104.865 385.433 102.565 386.366 99.9647C387.366 97.3647 388.133 94.6314 388.666 91.7647C389.2 88.8314 389.466 85.8647 389.466 82.8647C389.466 79.3314 388.8 76.6981 387.466 74.9647C386.2 73.1647 384.266 72.2647 381.666 72.2647C380.266 72.2647 378.833 72.6647 377.366 73.4647C375.9 74.1981 374.466 75.2647 373.066 76.6647C371.733 77.9981 370.466 79.5981 369.266 81.4647C368.066 83.3314 367 85.3981 366.066 87.6647C365.2 89.9314 364.5 92.3314 363.966 94.8647C363.5 97.3314 363.266 99.8981 363.266 102.565C363.266 105.698 364.033 108.265 365.566 110.265C367.1 112.198 369.466 113.165 372.666 113.165ZM405.145 119.465L421.345 43.4647H430.145L413.945 119.465H405.145ZM445.749 120.465C443.083 120.465 440.716 119.798 438.649 118.465C436.649 117.065 435.049 115.031 433.849 112.365C432.716 109.698 432.149 106.398 432.149 102.465C432.149 98.4647 432.549 94.6314 433.349 90.9647C434.149 87.2314 435.283 83.7981 436.749 80.6647C438.283 77.4647 440.083 74.6981 442.149 72.3647C444.216 69.9647 446.549 68.1314 449.149 66.8647C451.749 65.5314 454.516 64.8647 457.449 64.8647C459.716 64.8647 461.649 65.2981 463.249 66.1647C464.916 67.0314 466.316 68.1647 467.449 69.5647C468.583 70.9647 469.483 72.4981 470.149 74.1647H470.649L473.749 65.8647H480.449L469.049 119.465H462.049L463.349 109.565H463.049C461.583 111.498 459.949 113.298 458.149 114.965C456.416 116.631 454.516 117.965 452.449 118.965C450.383 119.965 448.149 120.465 445.749 120.465ZM448.849 113.165C451.116 113.165 453.349 112.265 455.549 110.465C457.816 108.665 459.849 106.231 461.649 103.165C463.516 100.098 464.916 96.6647 465.849 92.8647C466.383 90.8647 466.716 89.0314 466.849 87.3647C467.049 85.6314 467.149 84.1314 467.149 82.8647C467.149 79.7314 466.349 77.1981 464.749 75.2647C463.216 73.2647 461.083 72.2647 458.349 72.2647C456.416 72.2647 454.583 72.7981 452.849 73.8647C451.116 74.9314 449.516 76.4314 448.049 78.3647C446.649 80.2981 445.416 82.5647 444.349 85.1647C443.349 87.6981 442.549 90.4647 441.949 93.4647C441.416 96.3981 441.149 99.4314 441.149 102.565C441.149 106.098 441.816 108.765 443.149 110.565C444.483 112.298 446.383 113.165 448.849 113.165ZM496.351 120.465C493.284 120.465 490.584 120.131 488.251 119.465C485.917 118.865 483.851 118.065 482.051 117.065L482.151 108.965C483.817 110.031 485.884 111.031 488.351 111.965C490.884 112.831 493.484 113.265 496.151 113.265C498.617 113.265 500.684 112.931 502.351 112.265C504.017 111.531 505.284 110.531 506.151 109.265C507.017 107.931 507.451 106.431 507.451 104.765C507.451 103.498 507.184 102.398 506.651 101.465C506.184 100.465 505.351 99.4981 504.151 98.5647C502.951 97.5647 501.251 96.4314 499.051 95.1647C496.717 93.6981 494.751 92.2647 493.151 90.8647C491.551 89.3981 490.351 87.7981 489.551 86.0647C488.751 84.3314 488.351 82.3314 488.351 80.0647C488.417 76.9981 489.151 74.3314 490.551 72.0647C492.017 69.7981 494.084 68.0314 496.751 66.7647C499.417 65.4981 502.517 64.8647 506.051 64.8647C509.117 64.8647 511.951 65.2647 514.551 66.0647C517.217 66.7981 519.517 67.6314 521.451 68.5647L518.651 75.5647C516.984 74.7647 515.117 74.0314 513.051 73.3647C511.051 72.6314 508.684 72.2647 505.951 72.2647C503.284 72.2647 501.151 72.9647 499.551 74.3647C497.951 75.6981 497.151 77.4647 497.151 79.6647C497.151 80.7981 497.384 81.8314 497.851 82.7647C498.317 83.6314 499.151 84.5647 500.351 85.5647C501.551 86.4981 503.217 87.6314 505.351 88.9647C507.484 90.2981 509.384 91.6314 511.051 92.9647C512.784 94.2981 514.117 95.8314 515.051 97.5647C516.051 99.2981 516.517 101.431 516.451 103.965C516.451 107.565 515.617 110.598 513.951 113.065C512.284 115.531 509.951 117.398 506.951 118.665C503.951 119.865 500.417 120.465 496.351 120.465ZM540.559 120.465C537.093 120.465 534.193 119.598 531.859 117.865C529.526 116.131 528.359 113.098 528.359 108.765C528.426 107.765 528.526 106.665 528.659 105.465C528.793 104.198 528.993 102.931 529.259 101.665L535.359 72.5647H527.559L528.359 68.5647L537.059 64.7647L543.059 53.6647H548.359L545.659 65.8647H558.459L557.059 72.5647H544.259L538.059 101.765C537.859 102.631 537.659 103.631 537.459 104.765C537.326 105.831 537.259 106.831 537.259 107.765C537.193 109.298 537.526 110.598 538.259 111.665C539.059 112.731 540.359 113.265 542.159 113.265C543.293 113.265 544.393 113.165 545.459 112.965C546.526 112.698 547.693 112.365 548.959 111.965L548.859 118.665C548.059 119.065 546.826 119.465 545.159 119.865C543.559 120.265 542.026 120.465 540.559 120.465ZM557.588 119.465L568.988 65.8647H577.788L566.388 119.465H557.588ZM575.988 56.9647C574.655 56.9647 573.522 56.5647 572.588 55.7647C571.722 54.9647 571.288 53.8314 571.288 52.3647C571.288 51.1647 571.522 50.0981 571.988 49.1647C572.455 48.1647 573.122 47.3647 573.988 46.7647C574.922 46.1647 575.988 45.8647 577.188 45.8647C578.722 45.8647 579.855 46.2647 580.588 47.0647C581.388 47.8647 581.788 48.9314 581.788 50.2647C581.788 52.3314 581.188 53.9647 579.988 55.1647C578.855 56.3647 577.522 56.9647 575.988 56.9647ZM603.291 120.465C599.624 120.465 596.357 119.731 593.491 118.265C590.691 116.798 588.491 114.631 586.891 111.765C585.357 108.831 584.591 105.165 584.591 100.765C584.591 96.8981 584.991 93.1981 585.791 89.6647C586.591 86.1314 587.757 82.8647 589.291 79.8647C590.824 76.8647 592.691 74.2314 594.891 71.9647C597.091 69.6981 599.591 67.9647 602.391 66.7647C605.191 65.4981 608.257 64.8647 611.591 64.8647C613.924 64.8647 616.191 65.0981 618.391 65.5647C620.591 66.0314 622.591 66.6647 624.391 67.4647L621.891 74.7647C620.557 74.1647 619.024 73.5981 617.291 73.0647C615.624 72.5314 613.757 72.2647 611.691 72.2647C609.557 72.2647 607.557 72.7647 605.691 73.7647C603.824 74.6981 602.124 76.0647 600.591 77.8647C599.124 79.5981 597.857 81.6647 596.791 84.0647C595.791 86.3981 594.991 88.9647 594.391 91.7647C593.857 94.5647 593.591 97.4981 593.591 100.565C593.591 103.231 594.024 105.498 594.891 107.365C595.757 109.231 596.991 110.665 598.591 111.665C600.191 112.665 602.124 113.165 604.391 113.165C606.657 113.165 608.791 112.831 610.791 112.165C612.791 111.498 614.757 110.731 616.691 109.865V117.265C614.891 118.198 612.857 118.965 610.591 119.565C608.391 120.165 605.957 120.465 603.291 120.465Z" fill="black"/>
</svg>
