<svg width="625" height="176" viewBox="0 0 625 176" fill="none" xmlns="http://www.w3.org/2000/svg">
<rect x="82" y="25.6097" width="25" height="143" rx="12.5" transform="rotate(-90 82 25.6097)" fill="#60DDA0"/>
<rect y="173.946" width="25" height="142" rx="12.5" transform="rotate(-90 0 173.946)" fill="#60DDA0"/>
<rect x="77.8511" y="175.465" width="25" height="181.238" rx="12.5" transform="rotate(-155.034 77.8511 175.465)" fill="#60DDA0"/>
<path d="M165.4 120.946C161.733 120.946 158.467 120.213 155.6 118.746C152.8 117.28 150.6 115.113 149 112.246C147.467 109.313 146.7 105.646 146.7 101.246C146.7 97.3795 147.1 93.6795 147.9 90.1462C148.7 86.6129 149.867 83.3462 151.4 80.3462C152.933 77.3462 154.8 74.7129 157 72.4462C159.2 70.1795 161.7 68.4462 164.5 67.2462C167.3 65.9795 170.367 65.3462 173.7 65.3462C176.033 65.3462 178.3 65.5795 180.5 66.0462C182.7 66.5129 184.7 67.1462 186.5 67.9462L184 75.2462C182.667 74.6462 181.133 74.0795 179.4 73.5462C177.733 73.0129 175.867 72.7462 173.8 72.7462C171.667 72.7462 169.667 73.2462 167.8 74.2462C165.933 75.1795 164.233 76.5462 162.7 78.3462C161.233 80.0795 159.967 82.1462 158.9 84.5462C157.9 86.8795 157.1 89.4462 156.5 92.2462C155.967 95.0462 155.7 97.9795 155.7 101.046C155.7 103.713 156.133 105.98 157 107.846C157.867 109.713 159.1 111.146 160.7 112.146C162.3 113.146 164.233 113.646 166.5 113.646C168.767 113.646 170.9 113.313 172.9 112.646C174.9 111.98 176.867 111.213 178.8 110.346V117.746C177 118.68 174.967 119.446 172.7 120.046C170.5 120.646 168.067 120.946 165.4 120.946ZM208.664 120.746C204.797 120.746 201.464 119.946 198.664 118.346C195.864 116.68 193.697 114.313 192.164 111.246C190.631 108.18 189.864 104.58 189.864 100.446C189.864 97.1795 190.197 93.8795 190.864 90.5462C191.597 87.2129 192.664 84.0795 194.064 81.1462C195.464 78.1462 197.197 75.4795 199.264 73.1462C201.397 70.8129 203.831 68.9795 206.564 67.6462C209.364 66.3129 212.464 65.6462 215.864 65.6462C219.797 65.6462 223.164 66.4795 225.964 68.1462C228.764 69.8129 230.897 72.1795 232.364 75.2462C233.897 78.2462 234.664 81.8462 234.664 86.0462C234.664 89.3129 234.297 92.6129 233.564 95.9462C232.897 99.2129 231.864 102.346 230.464 105.346C229.064 108.28 227.331 110.913 225.264 113.246C223.197 115.58 220.764 117.413 217.964 118.746C215.231 120.08 212.131 120.746 208.664 120.746ZM209.364 113.446C211.164 113.446 212.864 113.046 214.464 112.246C216.131 111.38 217.631 110.18 218.964 108.646C220.364 107.046 221.564 105.113 222.564 102.846C223.564 100.513 224.331 97.8795 224.864 94.9462C225.464 91.9462 225.764 88.6795 225.764 85.1462C225.764 83.2129 225.431 81.3129 224.764 79.4462C224.097 77.5795 223.031 76.0462 221.564 74.8462C220.164 73.5795 218.231 72.9462 215.764 72.9462C213.697 72.9462 211.764 73.4462 209.964 74.4462C208.231 75.3795 206.664 76.7129 205.264 78.4462C203.864 80.1129 202.664 82.1129 201.664 84.4462C200.731 86.7795 199.997 89.3129 199.464 92.0462C198.997 94.7795 198.764 97.6462 198.764 100.646C198.764 104.713 199.664 107.88 201.464 110.146C203.331 112.346 205.964 113.446 209.364 113.446ZM240.977 119.946L252.477 66.0462H260.177L258.977 75.9462H259.177C260.444 74.2795 261.877 72.6129 263.477 70.9462C265.077 69.2795 266.911 67.8795 268.977 66.7462C271.111 65.6129 273.544 65.0462 276.277 65.0462C279.011 65.0462 281.344 65.5795 283.277 66.6462C285.277 67.7129 286.777 69.2462 287.777 71.2462C288.844 73.2462 289.377 75.6795 289.377 78.5462C289.377 80.0795 289.244 81.6462 288.977 83.2462C288.711 84.8462 288.444 86.2462 288.177 87.4462L281.177 119.946H271.877L278.977 86.2462C279.311 84.7129 279.544 83.4462 279.677 82.4462C279.877 81.3795 279.977 80.3795 279.977 79.4462C279.977 77.3129 279.477 75.7129 278.477 74.6462C277.477 73.5795 275.911 73.0462 273.777 73.0462C271.644 73.0462 269.344 73.8462 266.877 75.4462C264.477 76.9795 262.244 79.4795 260.177 82.9462C258.111 86.4129 256.477 91.0795 255.277 96.9462L250.277 119.946H240.977ZM317.453 120.746C313.586 120.746 310.253 119.946 307.453 118.346C304.653 116.68 302.486 114.313 300.953 111.246C299.42 108.18 298.653 104.58 298.653 100.446C298.653 97.1795 298.986 93.8795 299.653 90.5462C300.386 87.2129 301.453 84.0795 302.853 81.1462C304.253 78.1462 305.986 75.4795 308.053 73.1462C310.186 70.8129 312.62 68.9795 315.353 67.6462C318.153 66.3129 321.253 65.6462 324.653 65.6462C328.586 65.6462 331.953 66.4795 334.753 68.1462C337.553 69.8129 339.686 72.1795 341.153 75.2462C342.686 78.2462 343.453 81.8462 343.453 86.0462C343.453 89.3129 343.086 92.6129 342.353 95.9462C341.686 99.2129 340.653 102.346 339.253 105.346C337.853 108.28 336.12 110.913 334.053 113.246C331.986 115.58 329.553 117.413 326.753 118.746C324.02 120.08 320.92 120.746 317.453 120.746ZM318.153 113.446C319.953 113.446 321.653 113.046 323.253 112.246C324.92 111.38 326.42 110.18 327.753 108.646C329.153 107.046 330.353 105.113 331.353 102.846C332.353 100.513 333.12 97.8795 333.653 94.9462C334.253 91.9462 334.553 88.6795 334.553 85.1462C334.553 83.2129 334.22 81.3129 333.553 79.4462C332.886 77.5795 331.82 76.0462 330.353 74.8462C328.953 73.5795 327.02 72.9462 324.553 72.9462C322.486 72.9462 320.553 73.4462 318.753 74.4462C317.02 75.3795 315.453 76.7129 314.053 78.4462C312.653 80.1129 311.453 82.1129 310.453 84.4462C309.52 86.7795 308.786 89.3129 308.253 92.0462C307.786 94.7795 307.553 97.6462 307.553 100.646C307.553 104.713 308.453 107.88 310.253 110.146C312.12 112.346 314.753 113.446 318.153 113.446ZM345.166 143.946L361.566 66.3462H368.766L367.466 76.3462H367.866C369.4 74.3462 371 72.5462 372.666 70.9462C374.4 69.2795 376.266 67.9462 378.266 66.9462C380.333 65.9462 382.533 65.4462 384.866 65.4462C387.533 65.4462 389.866 66.1129 391.866 67.4462C393.933 68.7795 395.533 70.7795 396.666 73.4462C397.866 76.1129 398.466 79.4462 398.466 83.4462C398.466 87.3795 398.066 91.1795 397.266 94.8462C396.533 98.5129 395.466 101.946 394.066 105.146C392.666 108.28 390.933 111.046 388.866 113.446C386.8 115.78 384.466 117.613 381.866 118.946C379.266 120.28 376.433 120.946 373.366 120.946C371.1 120.946 369.133 120.513 367.466 119.646C365.8 118.78 364.4 117.646 363.266 116.246C362.2 114.846 361.3 113.346 360.566 111.746H360.066C360 112.813 359.8 114.313 359.466 116.246C359.2 118.113 358.933 119.646 358.666 120.846L353.866 143.946H345.166ZM372.666 113.646C374.666 113.646 376.533 113.08 378.266 111.946C380 110.813 381.533 109.28 382.866 107.346C384.266 105.346 385.433 103.046 386.366 100.446C387.366 97.8462 388.133 95.1129 388.666 92.2462C389.2 89.3129 389.466 86.3462 389.466 83.3462C389.466 79.8129 388.8 77.1795 387.466 75.4462C386.2 73.6462 384.266 72.7462 381.666 72.7462C380.266 72.7462 378.833 73.1462 377.366 73.9462C375.9 74.6795 374.466 75.7462 373.066 77.1462C371.733 78.4795 370.466 80.0795 369.266 81.9462C368.066 83.8129 367 85.8795 366.066 88.1462C365.2 90.4129 364.5 92.8129 363.966 95.3462C363.5 97.8129 363.266 100.38 363.266 103.046C363.266 106.18 364.033 108.746 365.566 110.746C367.1 112.68 369.466 113.646 372.666 113.646ZM405.145 119.946L421.345 43.9462H430.145L413.945 119.946H405.145ZM445.749 120.946C443.083 120.946 440.716 120.28 438.649 118.946C436.649 117.546 435.049 115.513 433.849 112.846C432.716 110.18 432.149 106.88 432.149 102.946C432.149 98.9462 432.549 95.1129 433.349 91.4462C434.149 87.7129 435.283 84.2795 436.749 81.1462C438.283 77.9462 440.083 75.1795 442.149 72.8462C444.216 70.4462 446.549 68.6129 449.149 67.3462C451.749 66.0129 454.516 65.3462 457.449 65.3462C459.716 65.3462 461.649 65.7795 463.249 66.6462C464.916 67.5129 466.316 68.6462 467.449 70.0462C468.583 71.4462 469.483 72.9795 470.149 74.6462H470.649L473.749 66.3462H480.449L469.049 119.946H462.049L463.349 110.046H463.049C461.583 111.98 459.949 113.78 458.149 115.446C456.416 117.113 454.516 118.446 452.449 119.446C450.383 120.446 448.149 120.946 445.749 120.946ZM448.849 113.646C451.116 113.646 453.349 112.746 455.549 110.946C457.816 109.146 459.849 106.713 461.649 103.646C463.516 100.58 464.916 97.1462 465.849 93.3462C466.383 91.3462 466.716 89.5129 466.849 87.8462C467.049 86.1129 467.149 84.6129 467.149 83.3462C467.149 80.2129 466.349 77.6795 464.749 75.7462C463.216 73.7462 461.083 72.7462 458.349 72.7462C456.416 72.7462 454.583 73.2795 452.849 74.3462C451.116 75.4129 449.516 76.9129 448.049 78.8462C446.649 80.7795 445.416 83.0462 444.349 85.6462C443.349 88.1795 442.549 90.9462 441.949 93.9462C441.416 96.8795 441.149 99.9129 441.149 103.046C441.149 106.58 441.816 109.246 443.149 111.046C444.483 112.78 446.383 113.646 448.849 113.646ZM496.351 120.946C493.284 120.946 490.584 120.613 488.251 119.946C485.917 119.346 483.851 118.546 482.051 117.546L482.151 109.446C483.817 110.513 485.884 111.513 488.351 112.446C490.884 113.313 493.484 113.746 496.151 113.746C498.617 113.746 500.684 113.413 502.351 112.746C504.017 112.013 505.284 111.013 506.151 109.746C507.017 108.413 507.451 106.913 507.451 105.246C507.451 103.98 507.184 102.88 506.651 101.946C506.184 100.946 505.351 99.9795 504.151 99.0462C502.951 98.0462 501.251 96.9129 499.051 95.6462C496.717 94.1795 494.751 92.7462 493.151 91.3462C491.551 89.8795 490.351 88.2795 489.551 86.5462C488.751 84.8129 488.351 82.8129 488.351 80.5462C488.417 77.4795 489.151 74.8129 490.551 72.5462C492.017 70.2795 494.084 68.5129 496.751 67.2462C499.417 65.9795 502.517 65.3462 506.051 65.3462C509.117 65.3462 511.951 65.7462 514.551 66.5462C517.217 67.2795 519.517 68.1129 521.451 69.0462L518.651 76.0462C516.984 75.2462 515.117 74.5129 513.051 73.8462C511.051 73.1129 508.684 72.7462 505.951 72.7462C503.284 72.7462 501.151 73.4462 499.551 74.8462C497.951 76.1795 497.151 77.9462 497.151 80.1462C497.151 81.2795 497.384 82.3129 497.851 83.2462C498.317 84.1129 499.151 85.0462 500.351 86.0462C501.551 86.9795 503.217 88.1129 505.351 89.4462C507.484 90.7795 509.384 92.1129 511.051 93.4462C512.784 94.7795 514.117 96.3129 515.051 98.0462C516.051 99.7795 516.517 101.913 516.451 104.446C516.451 108.046 515.617 111.08 513.951 113.546C512.284 116.013 509.951 117.88 506.951 119.146C503.951 120.346 500.417 120.946 496.351 120.946ZM540.559 120.946C537.093 120.946 534.193 120.08 531.859 118.346C529.526 116.613 528.359 113.58 528.359 109.246C528.426 108.246 528.526 107.146 528.659 105.946C528.793 104.68 528.993 103.413 529.259 102.146L535.359 73.0462H527.559L528.359 69.0462L537.059 65.2462L543.059 54.1462H548.359L545.659 66.3462H558.459L557.059 73.0462H544.259L538.059 102.246C537.859 103.113 537.659 104.113 537.459 105.246C537.326 106.313 537.259 107.313 537.259 108.246C537.193 109.78 537.526 111.08 538.259 112.146C539.059 113.213 540.359 113.746 542.159 113.746C543.293 113.746 544.393 113.646 545.459 113.446C546.526 113.18 547.693 112.846 548.959 112.446L548.859 119.146C548.059 119.546 546.826 119.946 545.159 120.346C543.559 120.746 542.026 120.946 540.559 120.946ZM557.588 119.946L568.988 66.3462H577.788L566.388 119.946H557.588ZM575.988 57.4462C574.655 57.4462 573.522 57.0462 572.588 56.2462C571.722 55.4462 571.288 54.3129 571.288 52.8462C571.288 51.6462 571.522 50.5795 571.988 49.6462C572.455 48.6462 573.122 47.8462 573.988 47.2462C574.922 46.6462 575.988 46.3462 577.188 46.3462C578.722 46.3462 579.855 46.7462 580.588 47.5462C581.388 48.3462 581.788 49.4129 581.788 50.7462C581.788 52.8129 581.188 54.4462 579.988 55.6462C578.855 56.8462 577.522 57.4462 575.988 57.4462ZM603.291 120.946C599.624 120.946 596.357 120.213 593.491 118.746C590.691 117.28 588.491 115.113 586.891 112.246C585.357 109.313 584.591 105.646 584.591 101.246C584.591 97.3795 584.991 93.6795 585.791 90.1462C586.591 86.6129 587.757 83.3462 589.291 80.3462C590.824 77.3462 592.691 74.7129 594.891 72.4462C597.091 70.1795 599.591 68.4462 602.391 67.2462C605.191 65.9795 608.257 65.3462 611.591 65.3462C613.924 65.3462 616.191 65.5795 618.391 66.0462C620.591 66.5129 622.591 67.1462 624.391 67.9462L621.891 75.2462C620.557 74.6462 619.024 74.0795 617.291 73.5462C615.624 73.0129 613.757 72.7462 611.691 72.7462C609.557 72.7462 607.557 73.2462 605.691 74.2462C603.824 75.1795 602.124 76.5462 600.591 78.3462C599.124 80.0795 597.857 82.1462 596.791 84.5462C595.791 86.8795 594.991 89.4462 594.391 92.2462C593.857 95.0462 593.591 97.9795 593.591 101.046C593.591 103.713 594.024 105.98 594.891 107.846C595.757 109.713 596.991 111.146 598.591 112.146C600.191 113.146 602.124 113.646 604.391 113.646C606.657 113.646 608.791 113.313 610.791 112.646C612.791 111.98 614.757 111.213 616.691 110.346V117.746C614.891 118.68 612.857 119.446 610.591 120.046C608.391 120.646 605.957 120.946 603.291 120.946Z" fill="#E1E3DF"/>
</svg>
